<?xml version="1.0" encoding="UTF-8" standalone="no"?>
<!-- Created with Inkscape (http://www.inkscape.org/) -->

<svg
   xmlns:dc="http://purl.org/dc/elements/1.1/"
   xmlns:cc="http://creativecommons.org/ns#"
   xmlns:rdf="http://www.w3.org/1999/02/22-rdf-syntax-ns#"
   xmlns:svg="http://www.w3.org/2000/svg"
   xmlns="http://www.w3.org/2000/svg"
   xmlns:sodipodi="http://sodipodi.sourceforge.net/DTD/sodipodi-0.dtd"
   xmlns:inkscape="http://www.inkscape.org/namespaces/inkscape"
   width="50"
   height="250"
   id="svg2"
   version="1.1"
   inkscape:version="0.48.3.1 r9886"
   sodipodi:docname="feedback-new.svg">
  <defs
     id="defs4" />
  <sodipodi:namedview
     id="base"
     pagecolor="#ffffff"
     bordercolor="#666666"
     borderopacity="1.0"
     inkscape:pageopacity="0.0"
     inkscape:pageshadow="2"
     inkscape:zoom="2.8284271"
     inkscape:cx="-74.134528"
     inkscape:cy="126.83997"
     inkscape:document-units="px"
     inkscape:current-layer="layer1"
     showgrid="false"
     inkscape:window-width="1375"
     inkscape:window-height="876"
     inkscape:window-x="65"
     inkscape:window-y="24"
     inkscape:window-maximized="1" />
  <metadata
     id="metadata7">
    <rdf:RDF>
      <cc:Work
         rdf:about="">
        <dc:format>image/svg+xml</dc:format>
        <dc:type
           rdf:resource="http://purl.org/dc/dcmitype/StillImage" />
        <dc:title></dc:title>
      </cc:Work>
    </rdf:RDF>
  </metadata>
  <g
     inkscape:label="Layer 1"
     inkscape:groupmode="layer"
     id="layer1"
     transform="translate(0,-802.36218)">
    <path
       style="fill:#ffffff;fill-opacity:1"
       d="M 23.96875,807.36981 C 13.401353,807.90536 5,816.6675 5,827.36595 c 0,11.04357 8.954305,19.99617 20,19.99617 11.045695,0 20,-8.9526 20,-19.99617 0,-11.04356 -8.954305,-19.99614 -20,-19.99614 -0.345178,0 -0.690366,-0.0173 -1.03125,0 z M 16,816.55554 l 3,0 0,6.81118 -3,0 0,-6.81118 z m 15,0 3,0 0,6.81118 -3,0 0,-6.81118 z m -19,16.80926 0.65625,0 c 2.693768,3.41373 7.714235,5.59267 12.34375,5.59267 4.629513,0 9.64998,-2.17894 12.34375,-5.59267 l 0.65625,0 c -2.465103,4.75534 -7.360289,7.99846 -13,7.99846 -5.639713,0 -10.534896,-3.24312 -13,-7.99846 z"
       id="path2985"
       inkscape:connector-curvature="0" />
    <path
       style="fill:#ffffff;fill-opacity:1"
       d="M 23.96875,857.36969 C 13.401353,857.90519 5,866.66744 5,877.36592 c 0,11.04361 8.954305,19.99622 20,19.99622 11.04569,0 20,-8.95261 20,-19.99622 0,-11.04362 -8.95431,-19.99623 -20,-19.99623 -0.34518,0 -0.69037,-0.017 -1.03125,0 z M 16,866.55546 l 3,0 0,6.81121 -3,0 0,-6.81121 z m 15,0 3,0 0,6.81121 -3,0 0,-6.81121 z m -6,14.8097 c 5.63971,0 10.5349,3.24309 13,7.99849 l -0.65625,0 C 34.64998,885.9499 29.62951,883.73971 25,883.73971 c -4.62952,0 -9.649981,2.21019 -12.34375,5.62394 l -0.65625,0 c 2.465104,-4.7554 7.360282,-7.99849 13,-7.99849 z"
       id="path2985-4"
       inkscape:connector-curvature="0" />
    <path
       style="fill:#ffffff;fill-opacity:1"
       d="m 25,957.36214 c -11.045695,0 -20,8.95431 -20,20 0,11.04569 8.954305,20.00004 20,20.00004 11.045695,0 20,-8.95435 20,-20.00004 0,-11.04569 -8.954305,-20 -20,-20 z m -0.46875,6 c 4.637092,0 6.71875,2.88442 6.71875,5.9375 0,2.69153 -1.533268,4.71911 -3.46875,6.96875 -1.774192,2.12912 -2.433468,3.88872 -2.3125,5.9375 l 0.0625,1 -3.15625,0 -0.0625,-1 c -0.241935,-2.16929 0.483873,-4.52717 2.5,-6.9375 1.814514,-2.16929 2.8125,-3.7235 2.8125,-5.53125 0,-2.04878 -1.30343,-3.4375 -3.84375,-3.4375 -1.451611,0 -3.054436,0.44656 -4.0625,1.25 L 18.75,965.01839 c 1.330644,-1.0043 3.644155,-1.65625 5.78125,-1.65625 z m -0.625,22.96875 c 1.451611,0 2.375,1.04488 2.375,2.53125 0,1.40604 -0.923389,2.50004 -2.375,2.50004 l -0.03125,0 c -1.370966,0 -2.34375,-1.094 -2.34375,-2.50004 0,-1.48637 1.004034,-2.53125 2.375,-2.53125 z"
       id="path3214"
       inkscape:connector-curvature="0" />
    <path
       style="fill:#ffffff;fill-opacity:1"
       d="m 25.5,1007.3622 c -11.045695,0 -20,8.9543 -20,20 0,11.0457 8.954305,20 20,20 11.045695,0 20,-8.9543 20,-20 0,-11.0457 -8.954305,-20 -20,-20 z m -2.03125,6 4.0625,0 -0.59375,19.6562 -2.875,0 -0.59375,-19.6562 z M 25.5,1036.2997 c 1.525422,0 2.5,1.0597 2.5,2.5312 0,1.4307 -0.974578,2.5313 -2.5,2.5313 l -0.03125,0 c -1.440677,0 -2.46875,-1.1006 -2.46875,-2.5313 0,-1.4715 1.059323,-2.5312 2.5,-2.5312 z"
       id="path3214-3"
       inkscape:connector-curvature="0" />
    <path
       style="fill:#ffffff;fill-opacity:1;fill-rule:evenodd;stroke:none"
       d="m 34.560287,941.73197 c -3.265262,-3.31683 -6.488331,-6.67577 -9.801576,-9.94498 -3.682485,3.8341 -7.361207,7.6718 -11.038714,11.51067 -0.969296,-0.22486 -1.648075,-1.09342 -2.253991,-1.82408 -0.09704,-0.38034 -0.67341,-0.83893 -0.16475,-1.12077 3.64001,-3.60452 7.289548,-7.20797 10.954313,-10.78224 0.397438,-0.33159 -0.507178,-0.68877 -0.660472,-1.02386 -2.031874,-2.07583 -4.070505,-4.14498 -6.104902,-6.21831 -1.275815,1.49938 -2.624943,2.98072 -3.68032,4.6349 -1.041179,-0.65589 -1.920968,-1.58361 -2.901462,-2.34305 -0.459627,-0.38567 -0.919655,-0.77086 -1.380755,-1.15478 2.623872,-3.44037 5.654155,-6.55478 8.835558,-9.48061 0.763784,-0.64769 1.496068,-1.41426 2.323093,-1.93899 1.190086,1.29952 2.332313,2.70268 3.52928,4.01974 -1.54708,1.41657 -3.20216,2.71095 -4.726434,4.153 2.414498,2.28592 4.793198,4.64118 7.222913,6.89129 1.209416,-1.05475 2.365152,-2.31562 3.559121,-3.44447 1.127025,-1.10993 2.254864,-2.21906 3.383941,-3.3269 -0.54597,-1.02019 -1.56951,-1.71048 -2.368647,-2.53394 -0.592876,-0.56389 -1.21322,-1.10309 -1.753656,-1.719 1.248739,-1.23622 2.476378,-2.52546 3.749168,-3.71768 0.716052,0.50133 1.313939,1.28554 1.983412,1.89659 0.760488,0.73216 1.470855,1.52962 2.269933,2.21418 0.267381,-0.14903 0.543029,-0.83452 0.81575,-0.41956 0.585114,0.59229 1.273566,1.14634 1.794001,1.76319 -0.02765,0.33606 -0.601753,0.5353 -0.521499,0.78441 0.98976,0.91461 1.8987,1.9309 2.431244,3.18436 1.004391,1.8908 2.005076,3.78358 3.009925,5.67415 -2.546683,-1.18658 -5.148337,-2.29119 -7.667574,-3.51384 -0.550518,-0.50359 -1.083746,-1.12687 -1.647578,-1.55636 -2.248096,2.2773 -4.476223,4.60616 -6.658763,6.92905 0.391677,0.61537 1.109034,1.09092 1.625506,1.65211 3.432419,3.27581 6.864088,6.55238 10.297189,9.82747 -0.361634,1.16655 -1.374915,2.09279 -2.469829,2.58284 -0.525461,0.23021 -0.762891,-0.58054 -1.157735,-0.81047 -0.275232,-0.28135 -0.550459,-0.56271 -0.82569,-0.84406 z"
       id="path2447"
       inkscape:connector-curvature="0" />
  </g>
</svg>
