<?xml version="1.0" encoding="UTF-8" standalone="no"?>
<!-- Created with Inkscape (http://www.inkscape.org/) -->

<svg
   xmlns:dc="http://purl.org/dc/elements/1.1/"
   xmlns:cc="http://creativecommons.org/ns#"
   xmlns:rdf="http://www.w3.org/1999/02/22-rdf-syntax-ns#"
   xmlns:svg="http://www.w3.org/2000/svg"
   xmlns="http://www.w3.org/2000/svg"
   xmlns:sodipodi="http://sodipodi.sourceforge.net/DTD/sodipodi-0.dtd"
   xmlns:inkscape="http://www.inkscape.org/namespaces/inkscape"
   width="50"
   height="250"
   id="svg2"
   version="1.1"
   inkscape:version="0.48.3.1 r9886"
   sodipodi:docname="feedback.svg">
  <defs
     id="defs4" />
  <sodipodi:namedview
     id="base"
     pagecolor="#ffffff"
     bordercolor="#666666"
     borderopacity="1.0"
     inkscape:pageopacity="0.0"
     inkscape:pageshadow="2"
     inkscape:zoom="0.70710678"
     inkscape:cx="-233.91661"
     inkscape:cy="-172.64069"
     inkscape:document-units="px"
     inkscape:current-layer="layer1"
     showgrid="false"
     inkscape:window-width="1440"
     inkscape:window-height="845"
     inkscape:window-x="0"
     inkscape:window-y="27"
     inkscape:window-maximized="1" />
  <metadata
     id="metadata7">
    <rdf:RDF>
      <cc:Work
         rdf:about="">
        <dc:format>image/svg+xml</dc:format>
        <dc:type
           rdf:resource="http://purl.org/dc/dcmitype/StillImage" />
        <dc:title></dc:title>
      </cc:Work>
    </rdf:RDF>
  </metadata>
  <g
     inkscape:label="Layer 1"
     inkscape:groupmode="layer"
     id="layer1"
     transform="translate(0,-802.36218)">
    <path
       style="fill:#ffffff;fill-opacity:1"
       d="M 23.96875,807.36981 C 13.401353,807.90536 5,816.6675 5,827.36595 c 0,11.04357 8.954305,19.99617 20,19.99617 11.045695,0 20,-8.9526 20,-19.99617 0,-11.04356 -8.954305,-19.99614 -20,-19.99614 -0.345178,0 -0.690366,-0.0173 -1.03125,0 z M 16,816.55554 l 3,0 0,6.81118 -3,0 0,-6.81118 z m 15,0 3,0 0,6.81118 -3,0 0,-6.81118 z m -19,16.80926 0.65625,0 c 2.693768,3.41373 7.714235,5.59267 12.34375,5.59267 4.629513,0 9.64998,-2.17894 12.34375,-5.59267 l 0.65625,0 c -2.465103,4.75534 -7.360289,7.99846 -13,7.99846 -5.639713,0 -10.534896,-3.24312 -13,-7.99846 z"
       id="path2985"
       inkscape:connector-curvature="0" />
    <path
       style="fill:#ffffff;fill-opacity:1"
       d="M 23.96875,857.36969 C 13.401353,857.90519 5,866.66744 5,877.36592 c 0,11.04361 8.954305,19.99622 20,19.99622 11.04569,0 20,-8.95261 20,-19.99622 0,-11.04362 -8.95431,-19.99623 -20,-19.99623 -0.34518,0 -0.69037,-0.017 -1.03125,0 z M 16,866.55546 l 3,0 0,6.81121 -3,0 0,-6.81121 z m 15,0 3,0 0,6.81121 -3,0 0,-6.81121 z m -6,14.8097 c 5.63971,0 10.5349,3.24309 13,7.99849 l -0.65625,0 C 34.64998,885.9499 29.62951,883.73971 25,883.73971 c -4.62952,0 -9.649981,2.21019 -12.34375,5.62394 l -0.65625,0 c 2.465104,-4.7554 7.360282,-7.99849 13,-7.99849 z"
       id="path2985-4"
       inkscape:connector-curvature="0" />
    <g
       transform="matrix(0.00596748,0,0,0.00587695,5.011935,911.36216)"
       style="fill:#ffffff;fill-rule:evenodd"
       id="Livello_x0020_1">
      <metadata
         id="CorelCorpID_0Corel-Layer" />
      <path
         inkscape:connector-curvature="0"
         class="fil0"
         d="M 6701,645 C 6454,754 6189,828 5911,861 6195,691 6413,421 6515,100 6249,258 5955,372 5642,434 5391,167 5034,0 4638,0 3879,0 3263,616 3263,1375 c 0,108 12,213 36,313 C 2156,1631 1143,1083 465,251 347,454 279,690 279,942 c 0,477 243,898 612,1144 -225,-7 -437,-69 -623,-172 0,6 0,11 0,17 0,666 474,1222 1103,1348 -115,31 -237,48 -362,48 -89,0 -175,-9 -259,-25 175,546 683,944 1284,955 -471,369 -1063,589 -1708,589 -111,0 -220,-7 -328,-19 608,390 1331,618 2108,618 2529,0 3912,-2095 3912,-3912 0,-60 -1,-119 -4,-178 269,-194 502,-436 686,-712 z"
         id="path3184"
         style="fill:#ffffff" />
    </g>
    <path
       style="fill:#ffffff;fill-opacity:1"
       d="m 25,957.36214 c -11.045695,0 -20,8.95431 -20,20 0,11.04569 8.954305,20.00004 20,20.00004 11.045695,0 20,-8.95435 20,-20.00004 0,-11.04569 -8.954305,-20 -20,-20 z m -0.46875,6 c 4.637092,0 6.71875,2.88442 6.71875,5.9375 0,2.69153 -1.533268,4.71911 -3.46875,6.96875 -1.774192,2.12912 -2.433468,3.88872 -2.3125,5.9375 l 0.0625,1 -3.15625,0 -0.0625,-1 c -0.241935,-2.16929 0.483873,-4.52717 2.5,-6.9375 1.814514,-2.16929 2.8125,-3.7235 2.8125,-5.53125 0,-2.04878 -1.30343,-3.4375 -3.84375,-3.4375 -1.451611,0 -3.054436,0.44656 -4.0625,1.25 L 18.75,965.01839 c 1.330644,-1.0043 3.644155,-1.65625 5.78125,-1.65625 z m -0.625,22.96875 c 1.451611,0 2.375,1.04488 2.375,2.53125 0,1.40604 -0.923389,2.50004 -2.375,2.50004 l -0.03125,0 c -1.370966,0 -2.34375,-1.094 -2.34375,-2.50004 0,-1.48637 1.004034,-2.53125 2.375,-2.53125 z"
       id="path3214"
       inkscape:connector-curvature="0" />
    <path
       style="fill:#ffffff;fill-opacity:1"
       d="m 25.5,1007.3622 c -11.045695,0 -20,8.9543 -20,20 0,11.0457 8.954305,20 20,20 11.045695,0 20,-8.9543 20,-20 0,-11.0457 -8.954305,-20 -20,-20 z m -2.03125,6 4.0625,0 -0.59375,19.6562 -2.875,0 -0.59375,-19.6562 z M 25.5,1036.2997 c 1.525422,0 2.5,1.0597 2.5,2.5312 0,1.4307 -0.974578,2.5313 -2.5,2.5313 l -0.03125,0 c -1.440677,0 -2.46875,-1.1006 -2.46875,-2.5313 0,-1.4715 1.059323,-2.5312 2.5,-2.5312 z"
       id="path3214-3"
       inkscape:connector-curvature="0" />
  </g>
</svg>
